<svg xmlns:xlink="http://www.w3.org/1999/xlink" xmlns="http://www.w3.org/2000/svg" version="1.1" id="icon-trailer" viewBox="0 0 485 485" width="485"  height="485" ><path d="M0,430.4" fill="#FFFFFF"></path><path d="M192.5,199l0,105.1c0,3.8,4.2,6.3,7.5,4.3l91.1-52.6c3.3-1.9,3.3-6.7,0-8.7L200,194.7C196.6,192.8,192.5,195.2,192.5,199z" fill="#FFFFFF"></path><path d="M455,76.6h-50H80H30H0v320v30h380.8l104.2,1.2v-1.2v-30v-320H455z M405,106.6h50v50h-50V106.6z M405,186.6h50v50h-50V186.6 z M405,266.6h50v50h-50V266.6z M110,106.6h265v290H110V106.6z M30,106.6h50v50H30V106.6z M30,186.6h50v50H30V186.6z M30,266.6h50 v50H30V266.6z M30,346.6h50v50H30V346.6z M405,396.6v-50h50v50H405z" fill="#FFFFFF"></path></svg>