<svg xmlns:xlink="http://www.w3.org/1999/xlink" xmlns="http://www.w3.org/2000/svg" fill="#F2F2F2" width="36" height="36" viewBox="0 0 36 36"><path d="M18 1.875c8.906 0 16.125 7.22 16.125 16.125 0 8.906-7.22 16.125-16.125 16.125-8.906 0-16.125-7.22-16.125-16.125C1.875 9.094 9.095 1.875 18 1.875zm0 2.25C10.337 4.125 4.125 10.337 4.125 18S10.337 31.875 18 31.875 31.875 25.663 31.875 18 25.663 4.125 18 4.125zm.67 6.97l.125.11 6 6 .018.018c.016.016.03.032.045.05l-.063-.068c.038.037.072.077.104.118l.026.036c.014.02.027.04.04.062l.033.06.02.04a.538.538 0 01.024.055 1.185 1.185 0 01.07.252l.005.04c.005.043.008.087.008.132l-.002.065c0 .016-.002.032-.004.048l.006-.113c0 .06-.005.12-.014.177l-.01.051a1.034 1.034 0 01-.15.374c-.014.021-.027.041-.042.06l-.005.007-.01.015a1.3 1.3 0 01-.083.096l-.016.015-6 6a1.125 1.125 0 01-1.7-1.464l.11-.126 4.078-4.08H12a1.125 1.125 0 01-.153-2.24l.153-.01h9.283l-4.078-4.08a1.125 1.125 0 01-.11-1.464l.11-.126a1.125 1.125 0 011.464-.11z" fill-rule="evenodd" fill="#F2F2F2"></path></svg>