<svg xmlns:xlink="http://www.w3.org/1999/xlink" fill="#F2F2F2" xmlns="http://www.w3.org/2000/svg" width="36" height="36" viewBox="0 0 36 36"><path d="M18 1.875c8.906 0 16.125 7.22 16.125 16.125 0 8.906-7.22 16.125-16.125 16.125-8.906 0-16.125-7.22-16.125-16.125C1.875 9.094 9.095 1.875 18 1.875zm0 2.25C10.337 4.125 4.125 10.337 4.125 18S10.337 31.875 18 31.875 31.875 25.663 31.875 18 25.663 4.125 18 4.125zM10.875 18v-.036l.006-.078-.006.114c0-.06.005-.12.014-.177l.01-.051c.024-.118.066-.23.124-.33l.026-.044.043-.063.004-.004.01-.015a1.3 1.3 0 01.083-.096l.016-.015 6-6a1.125 1.125 0 011.7 1.464l-.11.126-4.079 4.08H24a1.125 1.125 0 01.153 2.24l-.153.01h-9.284l4.08 4.08c.399.399.435 1.024.108 1.464l-.109.126c-.399.4-1.024.436-1.464.11l-.126-.11-6-6-.018-.018a.725.725 0 01-.045-.05l.063.068a1.155 1.155 0 01-.104-.118l-.026-.036a.943.943 0 01-.04-.062l-.033-.06-.02-.04a.538.538 0 01-.024-.055.983.983 0 01-.07-.252l-.005-.04a.62.62 0 01-.006-.062l-.002-.052V18z" fill-rule="evenodd" fill="#F2F2F2"></path></svg>