<svg xmlns:xlink="http://www.w3.org/1999/xlink" version="1.1" id="Capa_1" fill="white" width="512" xmlns="http://www.w3.org/2000/svg" link="http://www.w3.org/1999/xlink" x="0px" y="0px" viewBox="0 0 512 512" space="preserve" style="" height="512" ><g fill="#FFFFFF"><g fill="#FFFFFF"><path d="M492,236H20c-11.046,0-20,8.954-20,20c0,11.046,8.954,20,20,20h472c11.046,0,20-8.954,20-20S503.046,236,492,236z" fill="#FFFFFF"></path></g></g><g fill="#FFFFFF"><g fill="#FFFFFF"><path d="M492,76H20C8.954,76,0,84.954,0,96s8.954,20,20,20h472c11.046,0,20-8.954,20-20S503.046,76,492,76z" fill="#FFFFFF"></path></g></g><g fill="#FFFFFF"><g fill="#FFFFFF"><path d="M492,396H20c-11.046,0-20,8.954-20,20c0,11.046,8.954,20,20,20h472c11.046,0,20-8.954,20-20 C512,404.954,503.046,396,492,396z" fill="#FFFFFF"></path></g></g><g fill="#FFFFFF"></g><g fill="#FFFFFF"></g><g fill="#FFFFFF"></g><g fill="#FFFFFF"></g><g fill="#FFFFFF"></g><g fill="#FFFFFF"></g><g fill="#FFFFFF"></g><g fill="#FFFFFF"></g><g fill="#FFFFFF"></g><g fill="#FFFFFF"></g><g fill="#FFFFFF"></g><g fill="#FFFFFF"></g><g fill="#FFFFFF"></g><g fill="#FFFFFF"></g><g fill="#FFFFFF"></g></svg>